<svg width="188" height="43" viewBox="0 0 188 43" fill="none" xmlns="http://www.w3.org/2000/svg">
<path d="M59.3829 28.0228C58.2649 28.0228 57.2588 27.789 56.3644 27.3215C55.4802 26.8438 54.7841 26.1832 54.2759 25.3397C53.7678 24.4962 53.5137 23.5408 53.5137 22.4737C53.5137 21.4066 53.7678 20.4512 54.2759 19.6077C54.7841 18.7642 55.4802 18.1086 56.3644 17.6411C57.2588 17.1635 58.2649 16.9246 59.3829 16.9246C60.3585 16.9246 61.2376 17.0974 62.0202 17.443C62.8028 17.7885 63.4532 18.2865 63.9715 18.9369L62.0507 20.6748C61.3596 19.8415 60.5211 19.4248 59.5353 19.4248C58.956 19.4248 58.4377 19.5518 57.9804 19.8059C57.5332 20.06 57.1826 20.4208 56.9285 20.8883C56.6846 21.3456 56.5626 21.8741 56.5626 22.4737C56.5626 23.0733 56.6846 23.6069 56.9285 24.0744C57.1826 24.5317 57.5332 24.8874 57.9804 25.1415C58.4377 25.3956 58.956 25.5226 59.5353 25.5226C60.5211 25.5226 61.3596 25.1059 62.0507 24.2726L63.9715 26.0105C63.4532 26.6609 62.8028 27.1589 62.0202 27.5044C61.2376 27.85 60.3585 28.0228 59.3829 28.0228ZM70.4754 28.0228C69.3473 28.0228 68.331 27.7839 67.4264 27.3063C66.5321 26.8286 65.8258 26.168 65.3074 25.3244C64.7993 24.4809 64.5452 23.5307 64.5452 22.4737C64.5452 21.4167 64.7993 20.4665 65.3074 19.623C65.8258 18.7794 66.5321 18.1188 67.4264 17.6411C68.331 17.1635 69.3473 16.9246 70.4754 16.9246C71.6035 16.9246 72.6147 17.1635 73.5091 17.6411C74.4136 18.1188 75.1199 18.7794 75.6281 19.623C76.1464 20.4665 76.4055 21.4167 76.4055 22.4737C76.4055 23.5307 76.1464 24.4809 75.6281 25.3244C75.1199 26.168 74.4136 26.8286 73.5091 27.3063C72.6147 27.7839 71.6035 28.0228 70.4754 28.0228ZM70.4754 25.5226C71.014 25.5226 71.5018 25.3956 71.9389 25.1415C72.3759 24.8874 72.7214 24.5317 72.9755 24.0744C73.2296 23.6069 73.3566 23.0733 73.3566 22.4737C73.3566 21.8741 73.2296 21.3456 72.9755 20.8883C72.7214 20.4208 72.3759 20.06 71.9389 19.8059C71.5018 19.5518 71.014 19.4248 70.4754 19.4248C69.9367 19.4248 69.4489 19.5518 69.0119 19.8059C68.5749 20.06 68.2293 20.4208 67.9753 20.8883C67.7212 21.3456 67.5941 21.8741 67.5941 22.4737C67.5941 23.0733 67.7212 23.6069 67.9753 24.0744C68.2293 24.5317 68.5749 24.8874 69.0119 25.1415C69.4489 25.3956 69.9367 25.5226 70.4754 25.5226ZM88.438 17.1381L83.8646 27.8093H80.8919L76.3337 17.1381H79.5961L82.4926 24.0896L85.45 17.1381H88.438ZM89.0627 17.1381H92.0811V27.8093H89.0627V17.1381ZM94.2286 17.1381H99.2745C100.443 17.1381 101.48 17.3566 102.384 17.7936C103.289 18.2306 103.99 18.8506 104.488 19.6534C104.986 20.4563 105.235 21.3964 105.235 22.4737C105.235 23.551 104.986 24.4911 104.488 25.294C103.99 26.0968 103.289 26.7168 102.384 27.1538C101.48 27.5908 100.443 27.8093 99.2745 27.8093H94.2286V17.1381ZM99.1526 25.4007C100.067 25.4007 100.799 25.1415 101.348 24.6232C101.907 24.1049 102.186 23.3884 102.186 22.4737C102.186 21.559 101.907 20.8425 101.348 20.3242C100.799 19.8059 100.067 19.5467 99.1526 19.5467H97.247V25.4007H99.1526ZM113.531 19.5315H110.254V17.1381H119.812V19.5315H116.55V27.8093H113.531V19.5315ZM125.601 24.9738H123.955V27.8093H120.936V17.1381H125.815C126.78 17.1381 127.619 17.3007 128.33 17.6259C129.042 17.941 129.59 18.3983 129.977 18.9979C130.363 19.5874 130.556 20.2836 130.556 21.0864C130.556 21.8588 130.373 22.5347 130.007 23.114C129.651 23.6831 129.138 24.1303 128.467 24.4555L130.769 27.8093H127.537L125.601 24.9738ZM127.507 21.0864C127.507 20.5884 127.349 20.2022 127.034 19.9278C126.719 19.6534 126.252 19.5162 125.632 19.5162H123.955V22.6414H125.632C126.252 22.6414 126.719 22.5093 127.034 22.245C127.349 21.9706 127.507 21.5844 127.507 21.0864ZM139.371 25.7361H134.858L134.02 27.8093H130.941L135.651 17.1381H138.624L143.35 27.8093H140.209L139.371 25.7361ZM138.487 23.5103L137.115 20.0955L135.743 23.5103H138.487ZM149.377 28.0228C148.259 28.0228 147.253 27.789 146.358 27.3215C145.474 26.8438 144.778 26.1832 144.27 25.3397C143.762 24.4962 143.508 23.5408 143.508 22.4737C143.508 21.4066 143.762 20.4512 144.27 19.6077C144.778 18.7642 145.474 18.1086 146.358 17.6411C147.253 17.1635 148.259 16.9246 149.377 16.9246C150.353 16.9246 151.232 17.0974 152.014 17.443C152.797 17.7885 153.447 18.2865 153.966 18.9369L152.045 20.6748C151.354 19.8415 150.515 19.4248 149.529 19.4248C148.95 19.4248 148.432 19.5518 147.974 19.8059C147.527 20.06 147.177 20.4208 146.923 20.8883C146.679 21.3456 146.557 21.8741 146.557 22.4737C146.557 23.0733 146.679 23.6069 146.923 24.0744C147.177 24.5317 147.527 24.8874 147.974 25.1415C148.432 25.3956 148.95 25.5226 149.529 25.5226C150.515 25.5226 151.354 25.1059 152.045 24.2726L153.966 26.0105C153.447 26.6609 152.797 27.1589 152.014 27.5044C151.232 27.85 150.353 28.0228 149.377 28.0228ZM159.427 23.9372L158.299 25.1415V27.8093H155.311V17.1381H158.299V21.5743L162.431 17.1381H165.754L161.394 21.8639L165.983 27.8093H162.476L159.427 23.9372ZM175.342 25.4769V27.8093H166.775V17.1381H175.144V19.4705H169.763V21.2694H174.504V23.5256H169.763V25.4769H175.342ZM181.682 24.9738H180.036V27.8093H177.017V17.1381H181.895C182.861 17.1381 183.699 17.3007 184.411 17.6259C185.122 17.941 185.671 18.3983 186.057 18.9979C186.443 19.5874 186.636 20.2836 186.636 21.0864C186.636 21.8588 186.454 22.5347 186.088 23.114C185.732 23.6831 185.219 24.1303 184.548 24.4555L186.85 27.8093H183.618L181.682 24.9738ZM183.588 21.0864C183.588 20.5884 183.43 20.2022 183.115 19.9278C182.8 19.6534 182.332 19.5162 181.712 19.5162H180.036V22.6414H181.712C182.332 22.6414 182.8 22.5093 183.115 22.245C183.43 21.9706 183.588 21.5844 183.588 21.0864Z" fill="url(#paint0_linear_66_4)"/>
<path d="M11.5192 25.931C11.2408 26.2818 10.9564 26.6298 10.6871 26.9898C9.3467 28.7816 6.63845 28.5366 5.69182 26.5356C5.45011 26.0175 5.36563 25.44 5.44884 24.8744C5.53205 24.3088 5.77929 23.7801 6.15997 23.3536C6.54095 22.9268 7.04034 22.6231 7.59453 22.4811C8.14871 22.3391 8.73263 22.3652 9.27192 22.5561C9.63785 22.683 9.99263 22.8429 10.353 22.9861C10.4361 23.0191 10.522 23.0462 10.6489 23.0907C10.6803 22.7554 10.7149 22.4543 10.7348 22.156C10.7782 21.5105 10.8239 20.8653 10.8498 20.219C10.8784 19.5058 10.5566 19.0409 9.87172 18.8714C8.9227 18.6368 7.9697 18.4096 7.00796 18.2418C6.00007 18.066 5.07651 18.4232 4.17721 18.8333C2.67851 19.5162 1.10821 18.9876 0.306759 17.5493C-0.464468 16.166 0.200959 13.6435 2.50231 13.3531C3.72219 13.198 4.66126 13.6379 5.35453 14.6522C6.28724 16.0148 7.6002 16.8135 9.19834 17.1715C9.53125 17.2462 9.8578 17.3497 10.1927 17.4193C10.8259 17.5513 11.3744 17.3695 11.7161 16.8226C12.2383 15.9874 12.7052 15.1123 13.2227 14.2103C12.8592 14.1554 12.5374 14.0937 12.2132 14.0599C11.4722 13.9832 10.7845 13.7879 10.2134 13.2744C9.75224 12.8609 9.43537 12.3109 9.30907 11.7046C9.18277 11.0983 9.25365 10.4674 9.51136 9.90428C10.0491 8.72218 11.2594 8.07465 12.6046 8.24648C13.803 8.4008 14.8061 9.37965 15.0106 10.6075C15.0981 11.1345 15.1633 11.6655 15.2492 12.2645C16.5538 11.327 17.9141 10.5856 19.457 10.1787C19.2442 8.95367 18.9029 7.80658 18.1997 6.79113C17.7955 6.21424 17.2864 5.71851 16.699 5.32982C15.5853 4.57769 15.1367 3.3411 15.5145 2.05956C15.8681 0.861558 16.9933 0.0223173 18.2769 0.000441382C20.3849 -0.0361511 21.8434 2.20951 20.9278 4.12823C20.2346 5.5808 20.0961 7.05802 20.5551 8.59809C20.6347 8.87134 20.6745 9.15851 20.754 9.43335C20.8574 9.7778 20.9863 9.87087 21.3399 9.85854C21.9365 9.83507 22.5355 9.79371 23.1695 9.75791C23.1083 9.54313 23.0474 9.3359 22.9905 9.12749C22.7885 8.38728 22.6688 7.64151 22.9257 6.89176C23.261 5.91291 24.3576 5.15322 25.4804 5.10191C26.6339 5.04941 27.6517 5.65398 28.1485 6.69726C28.7013 7.85749 28.5323 8.93736 27.7583 9.93849C27.5793 10.17 27.3808 10.3863 27.1724 10.6322C27.283 10.7073 27.3625 10.7654 27.4461 10.8179C28.3291 11.3747 29.2164 11.926 30.0934 12.4924C30.2708 12.607 30.3719 12.591 30.5103 12.4395C31.3977 11.4698 31.8984 10.3279 31.9959 9.02447C32.11 7.5019 32.9902 6.46737 34.4758 6.17304C36.064 5.85842 37.7564 7.19524 37.8169 8.81287C37.8662 10.1079 37.2509 11.226 36.1662 11.6667C35.7128 11.8512 35.2061 11.9284 34.7156 11.9932C33.4731 12.1579 32.4004 12.6658 31.48 13.5047C31.4247 13.5548 31.3774 13.6964 31.4076 13.7433C32.044 14.7719 32.6903 15.7929 33.3605 16.8553C33.4592 16.7495 33.5387 16.6667 33.6155 16.5812C34.2296 15.9015 34.9642 15.4608 35.9065 15.4584C37.0484 15.4552 37.9298 15.9504 38.4863 16.9408C39.0514 17.9459 38.9783 18.9693 38.3809 19.9414C37.7234 21.0101 36.655 21.4214 35.358 21.1282C34.9754 21.0415 34.6023 20.9079 34.2073 20.7898C34.2073 21.5876 34.1771 22.3807 34.2196 23.1659C34.2415 23.5684 34.5378 23.8703 34.9165 23.9952C36.0564 24.3699 37.2035 24.739 38.4238 24.7223C39.2798 24.7103 40.0737 24.4363 40.8445 24.0859C42.2493 23.4495 43.7536 23.8707 44.5761 25.182C45.5808 26.7834 44.7826 29.3488 42.3615 29.5887C41.2036 29.7032 40.2984 29.2343 39.6409 28.2705C38.7989 27.0351 37.6411 26.242 36.1976 25.8658C35.7601 25.7508 35.3254 25.6271 34.8851 25.5201C34.1564 25.3427 33.5642 25.5909 33.1827 26.2309C32.5774 27.2459 31.9768 28.2638 31.3666 29.2935C31.9028 29.9302 32.6239 30.3842 33.4297 30.5926C34.1341 30.7775 34.8568 30.8901 35.5664 31.0563C36.9263 31.3745 37.7775 32.4834 37.8292 33.8775C37.8809 35.2716 36.7111 36.433 35.6416 36.7174C34.3799 37.0527 32.2556 36.336 32.0484 34.2514C31.9461 33.2209 31.7218 32.2229 31.1475 31.3435C30.9271 31.005 30.6547 30.6992 30.3918 30.3889C30.352 30.3408 30.2012 30.3201 30.1495 30.3559C29.4948 30.8046 28.8485 31.2659 28.1521 31.7588C28.4305 31.9405 28.6791 32.1092 28.9336 32.2647C29.6042 32.6736 30.1885 33.1676 30.4252 33.9467C30.9295 35.6081 30.1241 37.5324 27.9078 37.8096C26.151 38.0292 24.2001 36.2326 24.9188 33.9706C25.0214 33.6476 25.1288 33.3267 25.2481 32.9611C24.6467 32.9886 24.0863 33.0101 23.5267 33.0407C22.7423 33.0805 21.9584 33.1262 21.1752 33.1827C21.0897 33.189 20.9624 33.2662 20.9366 33.3418C20.3304 35.0091 20.1216 36.6928 20.7775 38.4007C20.8442 38.5827 20.9207 38.761 21.0066 38.9349C21.7873 40.4566 20.8928 42.2604 19.3758 42.8009C17.6289 43.4234 15.8359 42.4171 15.5082 40.5903C15.3021 39.4416 15.6673 38.4425 16.6366 37.7663C18.0398 36.787 18.9359 35.4991 19.2987 33.8286C19.3695 33.5045 19.4653 33.1855 19.5484 32.8641C19.5483 32.8337 19.5441 32.8035 19.5361 32.7742C17.7709 32.2969 16.1811 31.4417 14.7632 30.235C14.2137 30.7534 13.7719 31.3752 13.463 32.0646C13.1448 32.7742 13.0489 33.5327 12.9542 34.2948C12.7836 35.6666 11.582 36.7393 10.1855 36.7878C8.81849 36.8352 7.53417 35.8671 7.24939 34.5541C6.94392 33.1449 7.66583 31.2035 9.81404 30.9887C10.7754 30.8929 11.7173 30.694 12.5442 30.1535C12.8914 29.9271 13.2148 29.6626 13.5385 29.4025C13.587 29.3627 13.6181 29.2279 13.5898 29.1798C12.9324 28.1094 12.2653 27.0447 11.5991 25.9795C11.5884 25.9704 11.5677 25.9636 11.5192 25.931ZM19.702 19.5273C19.6749 17.9244 18.3739 16.6389 16.8092 16.6699C15.2381 16.7009 13.9581 18.0222 13.9943 19.5766C14.0317 21.1561 15.3371 22.4205 16.8979 22.3907C18.4415 22.3604 19.7274 21.0471 19.702 19.5273ZM20.6657 26.1299C20.6597 27.6413 21.9011 28.885 23.4101 28.885C24.8933 28.885 26.1339 27.652 26.1609 26.1474C26.188 24.6682 24.9164 23.3878 23.4141 23.3819C21.9059 23.3739 20.6713 24.6093 20.6657 26.1275V26.1299ZM28.8425 18.348C28.8434 18.1277 28.8008 17.9094 28.7169 17.7057C28.6331 17.502 28.5099 17.3169 28.3542 17.161C28.1986 17.0051 28.0137 16.8815 27.8101 16.7974C27.6065 16.7132 27.3883 16.6702 27.168 16.6707C26.2739 16.6767 25.5067 17.4447 25.4975 18.3412C25.4896 19.2561 26.2532 20.0205 27.1736 20.0217C27.3939 20.0235 27.6123 19.9814 27.8161 19.8977C28.0199 19.814 28.2049 19.6905 28.3603 19.5344C28.5157 19.3783 28.6385 19.1927 28.7213 18.9886C28.8041 18.7845 28.8453 18.5659 28.8425 18.3456V18.348Z" fill="url(#paint1_linear_66_4)"/>
<defs>
<linearGradient id="paint0_linear_66_4" x1="182.907" y1="29.8093" x2="-13.3792" y2="30.3483" gradientUnits="userSpaceOnUse">
<stop stop-color="#5A58C3"/>
<stop offset="0.9999" stop-color="#688FD3"/>
<stop offset="1" stop-color="#73BEE0"/>
</linearGradient>
<linearGradient id="paint1_linear_66_4" x1="59" y1="25" x2="-1.66507e-06" y2="24" gradientUnits="userSpaceOnUse">
<stop stop-color="#73BEE0"/>
<stop offset="1" stop-color="#5A58C3"/>
</linearGradient>
</defs>
</svg>
